<svg xmlns="http://www.w3.org/2000/svg" viewBox="0 0 113.39 113.39"><defs><style>.cls-1{fill:#ee9731;}</style></defs><title>Logo</title><g id="Layer_2" data-name="Layer 2"><g id="Layer_1-2" data-name="Layer 1"><path d="M82.14,68.88l7.52-6,4.84,11s8.8-29.41,18.33-34.74c0,0-4.5,14,.56,17.72,0,0-17.84,20.25-19.6,30.43C93.79,87.29,87.61,73.24,82.14,68.88Z"/><path class="cls-1" d="M95.09,88.65a1.17,1.17,0,0,1-2.23.28l-.45-1c0-.08-1.77-4-4.15-8.25L75.08,84.4V96.27l27.21-8.46a109.61,109.61,0,0,0-.64-13.23c-3.13,4.72-5.77,9.51-6.37,13Z"/><path class="cls-1" d="M49.25,71.79h8.26a2.53,2.53,0,0,1,1.67-2.5L87,59.3a2.51,2.51,0,0,1,3.23,1.56c0,.12.06.24.09.37a1.14,1.14,0,0,1,.53.57l2.22,5.06a1.17,1.17,0,0,0,2.18-.08c.85-2.38,1.91-5.22,3.15-8.17-7.12-22.72-21.54-29-21.54-29L29.53,45.3C40.91,50.64,46.56,61.14,49.25,71.79ZM85.62,48.4a2.57,2.57,0,0,1-1.54,3.27l-27.83,10a2.48,2.48,0,0,1-.84.15A2.53,2.53,0,0,1,53,60.1a2.56,2.56,0,0,1,1.53-3.27l27.84-10A2.5,2.5,0,0,1,85.62,48.4Zm-38.51-.51L75,37.9a2.51,2.51,0,0,1,3.22,1.56,2.57,2.57,0,0,1-1.54,3.27l-27.83,10a2.48,2.48,0,0,1-.84.15,2.55,2.55,0,0,1-2.39-1.71A2.58,2.58,0,0,1,47.11,47.89Z"/><path class="cls-1" d="M83.13,66.13,67.35,71.79h7.73V79l10.46-3.76a23.4,23.4,0,0,0-4.33-5.12l-.34-.27a1.2,1.2,0,0,1,0-1.87Z"/><path d="M68.9,90.29H57V78.13H68.9ZM67.5,79.52H58.34v9.37H67.5Z"/><path d="M49.32,98v12.11h-12V98ZM38.68,108.83c3,0,5.88,0,8.77,0,.18,0,.49-.49.5-.76,0-2,0-4.08,0-6.12V99.4H38.68Z"/><path d="M49.27,90.29H37.34V78.13H49.27ZM48,88.94c0-3.07,0-6,0-8.93a.78.78,0,0,0-.55-.52c-2.74,0-5.48,0-8.21,0a.77.77,0,0,0-.54.54c0,2.77,0,5.55,0,8.32,0,.2.33.57.51.57C42,89,44.93,88.94,48,88.94Z"/><path d="M61.1,100.49v-2.8h3.81L65,99H67.6l.12-1.3H69v12.48H67.69v-2.74H66.38v2.66l-1.39.08-.13-1.35-1.13-.17v-1.3l0,0h2.57l-.06-1.3L65,106V104.7h1.29l.12,1.22h1.2V104.6l-1.28-.12v-2.65l1.28-.1v-1.29H65l-.13-1.31h-2.4l-.13,1.32H61.07Z"/><path d="M35.24,76v9.3H34.16V74.91H44.4V76Z"/><path d="M61.85,76.07V74.92H72.1V85.31H71V76.07Z"/><path d="M44.43,112.23v1.14H34.18V103h1.06v9.24Z"/><path d="M72.11,113.39H61.86v-1.08H71V103h1.12Z"/><path d="M40.34,94.8V93.49h8.95V94.8Z"/><path d="M65.9,93.48v1.31h-9V93.48Z"/><path d="M52.47,81.16h1.22v9.09H52.47Z"/><path d="M52.46,107.1V98h1.25v9.06Z"/><path d="M61.07,106v2.69l1.27.13v1.31H61.08L61,108.78h-2.7V106l0,0h2.86Z"/><path d="M61.09,103.15v-1.36l0,0h4v1.31l-1.23.11-.13,1.31-1.29.12,0,0-.08-1.47-1.26-.09Z"/><path d="M58.25,106H57v-1.34l1.22-.14.12-1.38h2.76v1.55l0,0h-2.8L58.23,106Z"/><path d="M58.23,100.48H57V97.71H58.2v2.79Z"/><path d="M61.09,101.79h-2.8c0-.46,0-.89-.06-1.31l0,0h2.9l0,0v1.37Z"/><path d="M67.59,94.79V93.51h1.32v1.28Z"/><path d="M52.47,93.46h1.25v1.35H52.47Z"/><path d="M38.57,93.49v1.33H37.31V93.49Z"/><path d="M53.73,78.12V79.4H52.45V78.12Z"/><path d="M52.43,110.13V108.9h1.31v1.23Z"/><path d="M62.41,106H61.07l0,0v-1.37l0,0h1.34l0,0V106Z"/><path d="M63.73,107.35H62.41V106l0,0h1.32v1.34Z"/><path d="M58.21,108.9v1.25H57V108.9Z"/><path d="M65.61,81.44V87h-5.4V81.44Z"/><path d="M40.56,106.92v-5.59h5.51c0,1.72,0,3.43,0,5.13,0,.16-.3.43-.46.44C43.93,106.93,42.28,106.92,40.56,106.92Z"/><path d="M46.07,87h-5.5v-5.6c1.7,0,3.38,0,5.07,0,.14,0,.41.25.41.38C46.08,83.5,46.07,85.21,46.07,87Z"/><path d="M0,53.32,24.28,9.58c.74-1.32,1.51-2.5,3.25-2.74C43.41,4.66,59.29,2.42,76.57,0c-3.68,6.23-6.64,11.05-9.39,16-1.27,2.29-3.25,1.81-5.17,2-17.87,1.86-31.15,10.74-39.25,27-1.43,2.88-3.16,4.19-6.06,4.57-5.93.77-5.39,2.9-1.36,6.13,2.7,2.18,5.14,4.8,5,8.69,0,.42-1.86,1.34-2.44,1.08-3.17-1.43-4.73-4.38-5.46-7.55C11.07,52.09,7.86,49.85,0,53.32Z"/><path d="M70.14,29.06c-19.35-.32-33,8.11-39.92,26.58-5.13-3.1-5.89-4.37-3.72-8.88A44.14,44.14,0,0,1,35,34.92c3.78-3.8,8.39-6.35,13-9A27.82,27.82,0,0,1,60,22.26C66.2,21.82,66.69,22,70.14,29.06Z"/></g></g></svg>